<?xml version="1.0" encoding="utf-8"?>
<!-- Generator: Adobe Illustrator 22.1.0, SVG Export Plug-In . SVG Version: 6.00 Build 0)  -->
<svg version="1.1" id="Calque_1" xmlns="http://www.w3.org/2000/svg" xmlns:xlink="http://www.w3.org/1999/xlink" x="0px" y="0px"
	 viewBox="0 0 400 400" style="enable-background:new 0 0 400 400;" xml:space="preserve">
<g>
	<g>
		<path d="M232.2,319.7C232.2,319.7,232.2,319.7,232.2,319.7C232.2,319.8,232.2,319.8,232.2,319.7z"/>
		<path d="M55.3,234.8c-0.2,0.8-0.3,1.5-0.5,2.3c-0.1,0-0.3,0.1-0.4,0.1c-0.9-1.3-1.8-2.7-2.6-4c-0.1,0.3,0,0.6,0.1,0.8
			c0.6,1,1.2,1.9,1.7,3c1.1,2.4,2.1,4.9,3,7.3c0.2,0.5,0.2,1.1,0.3,1.6c0.1,0.8,0.1,1.5,1,1.9c0.6,0.2,1.3,0.8,1.4,1.4
			c0.5,1.7,0.7,3.4,1,5.1c0.2,0.7,0.3,1.5,0.8,1.9c1.1,1,2.1,2.1,2.5,3.6c0,0.1,0.1,0.2,0.1,0.4c0-0.4,0-0.8,0.1-1.2
			c0.2-2.1,0.5-4.1,0.8-6.2c-1.2-0.9-2-2.8-1.9-3.9c0.2-1.8-0.9-3.8-2.5-4.6c-0.2-0.1-0.4-0.3-0.4-0.5c-0.6-1.3-1-2.6-1.7-3.9
			c-0.7-1.4-1.3-2.9-2.8-3.7c0-0.4,0-0.8,0-1.3C55.4,234.8,55.4,234.8,55.3,234.8z"/>
		<path d="M229.4,264.2c0.2,0.3,0.4,0.6,0.7,0.9c0.2,0,0.5-0.1,0.6-0.1c0.4,1,0.8,1.9,1.2,2.8c-0.1,0.1-0.2,0.1-0.3,0.2
			c-0.8-1-1.5-1.9-2.3-2.9c-0.1,0-0.1,0.1-0.2,0.1c0.1,0.3,0.2,0.7,0.3,1c-0.1,0-0.1,0.1-0.2,0.1c-0.2-0.3-0.4-0.7-0.7-0.9
			c-0.1-0.1-0.2-0.1-0.3-0.1l-1.1,1.1c0.1,0.1,0.2,0.2,0.2,0.3c0.2,0.5,0.1,1.2,0.1,1.9c-0.2,0-0.3,0-0.5,0.1
			c-0.2-0.4-0.4-0.9-0.6-1.3l-30.4,30.5c0.4,0.1,0.8,0.2,1.1,0.3c0.1,0.5,0.2,1.1,0.5,1.6c0.2,0.3,0.6,0.5,1,0.7
			c0.5,0.4,1,0.9,1.3,1.2c-0.3,1.8-0.6,3.4-0.9,4.9c-0.9,0.1-1.7,0.2-2.6,0.4c-0.8-0.7-1.7-1.4-2.6-2.2c-0.8-0.8-1.6-1.6-2.4-2.4
			l-9,9c-11.9,12.3-27.7,19.9-44.7,21.5c-20,1.5-39.6-5.8-53.8-20c-5-5-9.1-10.7-12.3-16.9c-0.5,0.6-0.9,1.1-1.4,1.6
			c-1.4,1.4-2.5,3-3.4,4.8c-1.2,2.3-1.3,2.9,0,4.7c0.1,1,0,1.7,0.1,2.4c0.2,1.5,0.4,3,1.7,4.1c0.3,0.3,0.7,0.7,0.8,1.1
			c0.1,1.1,0.1,2.2,0.2,3.3c0,0.9,0,1.9,0.2,2.7c0.4,1.5-0.3,3.4-1.7,4.1c-1.3,0.7-2.7,1.4-4,2.2c-0.5,0.3-1,0.6-1.3,1
			c-0.5,0.6-1.8,0.7-1.4,1.8c0.4,1.2,0.9,2.3,1.5,3.4c1,1.9,0.2,3.5-1.9,3.8c-0.6,0.1-1.1,0.5-1.7,0.7c0.8,1,1.1,3.7,0.4,4.1
			c-1.2,0.7-1.5,1.9-2.2,2.9c-1.2,1.8-3.9,2.6-5.8,1.8c-1-0.4-2.1-0.7-3.2-1c-1.2-0.4-2.6-0.6-3.3-1.8c-0.6-0.9-0.9-2-1.5-3
			c-1.1-1.9-2.4-3.7-3.5-5.5c-1-1.6-2.1-3.3-2.9-5c-1.8-3.4-3.3-7-5.2-10.3c-0.8-1.4-1.4-2.7-1.5-4.2c-0.1-1.6-0.5-3.3,0.3-4.9
			c0.3-0.6,0.4-1.5,0.3-2.1c-0.4-1.8-1.1-3.6-1.7-5.4c-0.4-1.1-0.8-2.2-1.3-3.2c-0.8-1.7-1.7-3.3-2.6-4.9c-0.8-1.4-1.7-2.8-2.1-4.4
			c-0.3-1.3,0.1-2.7,0.1-4.1c0-1.3,0.1-2.6-0.3-3.7c-0.2-0.6-0.6-1.8-1.9-1.6c-2.2,0.3-2.1-0.1-2.7-1.9c-0.2-0.6-0.4-1.3-0.8-1.5
			c-0.6-0.4-1.4-0.5-2.1-0.4c-0.4,0-0.8,0.7-1.3,1c-0.5,0.3-0.9,1-1.5,0.3c-0.9-0.9-1.8-0.8-2.8,0c-0.4-0.7-0.7-1.3-1.1-1.9
			c-1.1-2.3-1.7-4.7-2.2-7.1c-0.7-3.2-1.4-6.3-1.3-9.5c0.1-1.7,0.1-3.4,0-5.1c-0.2-4,0.3-7.9,1.3-11.7c0.4-1.5,1.1-3,1.5-4.5
			c0.3-1.3,0.4-2.7,0.8-4c0.8-2.5,1.8-4.9,2.7-7.4c0.7,0.6,2,0.4,2.5-0.3c0.9-1.2,1.7-2.6,3.2-3.2c0.7-0.3,1.4-0.4,2.1-0.7
			c1.3-0.5,2.6-1.1,3.9-1.7c0.3,0.6,1.2,1,0.5,1.9c-0.1,0.1,0,0.3,0,0.3c0.7,1.2,0.1,2.1-0.5,3c-0.2,0.3-0.1,1.2,0.1,1.4
			c0.8,0.6,1.6,1.3,2.9,1.1c1.2-0.2,1.8,0.5,2.1,1.6c0.1,0.4,0.5,1,0.8,1c1.2-0.1,2,0.6,2.7,1.4c0.5,0.6,1.1,0.6,1.4-0.1
			c0.3-0.7,0.5-1.5,0.5-2.2c0-1.1,0.4-2.3,1.3-2.8c1.4-0.7,1.9-0.6,3.1,0.5c0.1,0.1,0.2,0.2,0.3,0.2c1.2,0.3,2.5,0.7,3.7,1
			c0.9,0.2,1.8,0.3,2.6,0.5c1.2,0.3,2.3,0.9,3.4-0.4c0.5-0.6,1.4-1,2.4-0.5c0.3,0.2,0.6,0.3,0.9,0.4c0.5,0,1.1,0,1.6-0.2
			c0.5-0.1,1.1-0.3,1.3-0.7c0.6-1.2,1-2.4,1.5-3.7c0.3-0.7,0.7-1.5,0.8-2.2c0.2-1.4,0.2-2.8,0.3-4.2c0-0.5,0.2-1,0.3-1.5
			c-0.4,0.2-0.8,0.6-1,0.5c-1.1-0.5-1.5,0.2-2.1,0.9c-0.6,0.8-2.4,1-2.9,0.3c-0.6-0.9-1.4-0.9-2.3-0.8c-0.4,1.2-2,2.1-2.4,1.3
			c-0.5-1-1-0.7-1.7-0.4c-0.1,0.1-0.3,0-0.6,0c0.2-0.2,0.4-0.3,0.6-0.5c-0.1,0-0.2,0.1-0.3,0.1c-0.3-0.7-0.7-1.3-1-2
			c-0.2-0.4-0.7-0.8-0.6-1.2c0.2-0.8,0.6-1.5,0.9-2.4c-0.6,0-0.8-0.1-1.1-0.1c0.1-0.7,0.2-1.3,0.2-1.9c0-0.3-0.1-0.7-0.3-0.8
			c-0.6-0.5-3,0.3-2.8,0.9c0.2,0.9-0.5,0.8-0.9,1.1c-0.2-0.2-0.5-0.4-0.9-0.8c0.1,1.5,0.2,2.6,0.3,4.1c0.3,0.3,1.6,0.6,0.9,1.9
			c-0.3,0-0.6,0-0.8,0c-0.2,0.8-0.3,1.5-0.5,2.3c-0.5,0-1-0.1-1.4-0.1c-0.2-0.6-0.4-1-0.5-1.5c-0.1-0.3-0.2-0.7-0.1-0.8
			c0.2-0.2,0.6-0.4,0.9-0.4c0.3,0,0.6,0.1,1,0.2c-0.2-0.4-0.6-0.6-0.9-0.5c-0.9,0.3-1.3-0.3-1.6-1c-0.1-0.3-0.3-0.5-0.4-0.7
			c-0.4-1.2-1.4-2.3-0.8-3.7c0.5-1.1-0.2-1.9-0.9-2.6c-0.3-0.3-1-0.3-1.2-0.6c-0.6-0.9-2.1-1.1-1.9-2.6c0.1-0.3-0.3-0.7-0.5-1.2
			c-0.3,0.4-0.5,0.7-0.8,1.2c0-0.7-0.1-1.2-0.1-1.7c-1.6,1.2-1.9,2.3-0.9,3.7c0.3,0.4,0.5,1,0.6,1.5c0.3,1,0.6,1.9,1.4,1.6
			c0.6,0.5,0.8,0.9,1.2,1c1.3,0.7,1.8,1.4,1.4,2.3c-0.4-0.3-0.7-0.6-1.4-1c-0.2,0.9-0.5,1.5-0.4,2.1c0.2,0.8-0.4,3.4-1.2,3.6
			c-1,0.3-1,1-1.1,1.8c0,0.3-0.1,0.6-0.3,1.1c-0.7-0.5-1.2-0.8-1.7-1.2c-0.3-0.2-0.5-0.6-0.7-0.9c0.4-0.1,0.7-0.3,1.1-0.4
			c1-0.3,2.1-0.5,2.6-1.6c0.7-1.5,0.3-3.2-1.2-4.2c-1.8-1.1-2.8-2.6-3.4-4.7c-0.1-0.4-0.5-0.7-0.7-1c-0.3,0.2-0.6,0.5-0.9,0.7
			c-1.1,0.7-1.2,3-3.3,2.2c-0.1-0.1-0.5,0.2-0.6,0.4c-0.3,0.5-0.5,1.1-0.6,1.6c-0.3,1.2-0.7,2.2-1.5,3.1c-0.8,1-1.5,2.4-1.7,3.8
			c-0.2,1.4-0.6,2.7-1.4,3.8c-0.8,1.1-1.9,2-3,3.1c-0.1-0.6-0.2-1-0.2-1.4c-0.3,0.1-0.5,0.1-0.8,0.1c0.1-1.2,0.1-2.3,0.3-3.3
			c0.5-2.2,1-4.4,1.5-6.6c0.2-0.9,0.8-1.9,1.7-2.1c2.1-0.3,2.8-1.7,3.1-3.6c0-0.4,0.3-0.8,0.3-1.1c0-1,0.3-2.4-0.2-3
			c-0.9-1-0.3-1.6,0.3-1.9c1.1-0.5,1.4-1.3,1.4-2c0.5-0.4,0.9-0.7,1.2-1c0.7-1,1.2-2,1.9-3c0.8-1.3,1.5-2.8,2.5-4
			c0.8-1,1.8-1.9,2.7-2.8c0.4-0.5,1-0.9,1.3-1.4c0.3-0.6,0.3-1.4,0.3-2.1c0.2-2,1.7-3.1,2.7-4.6c-0.4,1.3-0.9,2.5-1.5,3.7
			c-0.1,0.2-0.4,0.4-0.4,0.6c0,0.4,0.1,0.9,0.2,1.3c0.4-0.1,0.8,0,1.1-0.2c0.5-0.3,1-0.8,1.4-1.1c0.2,0.4,0.3,0.7,0.4,1
			c1.5-1.3,2.9-2.6,4.3-3.8c0.7,0.9,1.3,0.8,1.8,0c0.1-0.2,0.2-0.7,0.3-0.7c1.6-0.4,1.1-1.7,1.4-2.8c0.4-1.3,0.8-2.7,2.3-3.4
			c0.3,0.4,0.5,0.7,0.8,1.1c0.7-1,1.4-1.8,0.8-3.1c-0.2-0.4,0.1-1.4,0.5-1.8c0.9-0.8,2-1.6,3.4-1.5c0.3,0,0.7-0.1,1-0.4
			c0.8-0.7,1.6-1.4,2.3-2.1c-0.3-0.1-0.7-0.2-1.1-0.3c0-0.1,0-0.2,0-0.3c-1.9,1.1-3.8,2.2-5.7,3.3c-0.5-0.2-1-0.4-1.4-0.6
			c0.1-4.6,4.1-6.8,6.5-10.4c-2.2,0.3-3.3,1.4-4.2,3c-0.4,0.8-0.9,1.7-1.6,2.3c-1.9,2-4,3.9-4.5,6.8c0.3,0.4,0.6,1.1,0.5,1.4
			c-0.5,0.9-1.1,1.6-1.7,2.4c-0.3,0.3-0.6,0.6-0.8,1c-0.4,1.1-0.8,2.2-1.2,3.2c-0.3,0.9-0.6,1.8-1.7,2.1c-0.3,0.1-0.6,0.5-0.8,0.8
			c-0.3,0.3-0.6,0.7-0.9,1.1c-0.1,0-0.1-0.1-0.2-0.1c0.1-2,0.3-4,0.4-6.2c-0.7,0.9-1.3,1.6-1.8,2.2c-0.4,0.5-0.9,1-1.4,1.5
			c-0.2,0.2-0.6,0.1-0.8,0.1c0-0.3,0-0.6,0.1-0.8c0.4-0.9,0.8-1.7,1.2-2.6c0.5-1.1,0.9-2.2,1.6-3.2c1.6-2.1,3.3-4.1,5-6.1
			c1-1.3,2.1-2.6,3.1-3.9c0.6-0.8,1.2-1.6,1.9-2.3c1.3-1.5,2.6-3.1,4-4.5c1.5-1.5,3.1-3,4.8-4.3c1.4-1.1,2.8-2,4.3-3
			c1-0.6,2-1.1,3-1.7c0.1,0.1,0.2,0.3,0.3,0.4c-0.4,0.2-0.8,0.4-1.2,0.6c0.1,0.1,0.1,0.2,0.2,0.3c0.9-0.2,1.9-0.1,2.5-0.6
			c2.1-1.4,4.3-0.8,6.5-0.4c0.2,0,0.6,0.9,0.5,1c-0.8,0.9-1.6,1.8-2.6,2.4c-1.9,1.1-4,1.4-6.1,1.1c-0.2,0-0.4,0.1-0.6,0.2
			c0,0.1,0,0.2-0.1,0.3c0.6,0.2,1.3,0.5,1.8,0.6c-0.1,0.9-0.2,1.8-0.3,2.6c0.8,0.2,1.5,0.4,2.1,0.4c0.7,0,1.3-0.3,1.2-1.1
			c-0.5-0.1-1-0.1-1.5-0.2c0.3-1.1,0.9-1.4,1.8-1c0.5,0.2,1.1,0.2,1.6,0.1c0.4-0.1,1-0.8,0.9-0.8c-0.9-1.1,0.2-1.7,0.7-2.1
			c1-0.8,1.8-2.2,3.5-1.9c0.2,0,0.7-0.3,0.8-0.5c0.2-1.1,0.2-2.3,0.3-3.4c0-0.1-0.2-0.2-0.4-0.4c1.1,0,2.1-1.1,3.3,0
			c-0.7,0.5-1.3,0.9-1.9,1.3c0,0.1,0,0.3,0,0.4c0.5,0.1,1.1,0.2,1.6,0.1c1.1-0.1,1.2-1.2,1.8-1.8c1.3-1.2,2.9-2,4.4-3
			c0.6-0.4,1.2-0.7,1.9-1c0.2-0.1,0.5-0.2,0.8-0.2c-0.1,0.3-0.2,0.6-0.3,1c2.3-1.1,4.5-2.1,6.9-3.3c0,0.4,0,0.7,0,1.3
			c0.8-0.7,1.5-1.2,2.2-1.8c-0.3-0.2-0.4-0.3-0.6-0.4c-0.1-0.1-0.2-0.3-0.6-0.7c3.8-1.7,7.4-1.1,11.2-0.1c0.1-0.4,0.2-0.8,0.4-1.3
			c-1.2-0.3-2.4-0.6-3.6-1c0.3-0.8,0.4-1.6-0.8-1.9c0.3-0.4,0.6-0.6,0.8-0.9c0.4-0.6,0.9-1.1,1.1-1.7c0.2-1,0.6-1.5,1.6-1.5
			c0.4,0,0.7-0.2,1-0.2c2-0.4,2.2-0.1,1.7,1.8c0,0.1,0,0.1,0,0.2c0.7,0.4,1.4,0.9,1.6,1.5c0.5,1.3,0.8,2.7,2.6,2.8
			c-0.1,0.3-0.2,0.5-0.1,0.7c0.5,1.6-0.7,2.5-1.4,3.6c-0.1,0.2-0.7,0.2-1,0.2c-0.6,0-1.2,0-2.2,0c0.4,0.3,0.5,0.5,0.6,0.5
			c1.3,0,2.7,0.2,4-0.1c0.6-0.1,1.1-1,1.6-1.7c0.3-0.5,0.4-1.1,0.7-1.6c0.4-0.6,0.4-1-0.3-1.2c-1-0.4-0.6-0.9,0-1.3
			c1.5-1,3-0.7,4,0.8c0.2,0.4,0.7,0.6,1.1,1c-0.4-0.8-0.6-1.4-0.9-1.9c0.1-0.1,0.2-0.2,0.2-0.3c-1.6-0.5-3-1.3-4.8-0.2
			c-1,0.7-2.4-0.3-2.4-1.5c0-0.3,0.2-0.6,0.3-0.9c-0.8-0.3-1.4-0.5-2.3-0.8c0.5-0.6,0.9-1.2,1.3-1.8c-0.1-0.2-0.2-0.5-0.3-0.8
			c0.1-0.1,0.2-0.1,0.3-0.2c0.2,0.4,0.6,0.7,0.7,1.1c0.3,0.7,0.6,1.2,1.4,1c1.1-0.1,2.1-0.2,3.3-0.3c-1.1-0.8-2.6,0.6-3.7-1
			c1-0.1,1.8-0.1,2.6-0.2c0-0.1,0-0.2,0-0.3c-0.2-0.1-0.4-0.3-0.6-0.4c0-0.1,0-0.2,0-0.3c2.4,0,4.7,0,6.9,0c0.1,0.6,0.1,1.2,0.2,1.8
			c0.5-0.3,0.8-0.4,1.2-0.6c0,0.5,0,0.9,0,1.5c0.5-0.3,0.8-0.5,1.2-0.7c-0.6-0.8-1.1-1.8-1.9-2.2c-0.9-0.5-2.1-0.7-3-0.5
			c-1.4,0.3-1.9-0.6-2.8-1.4c2.3-0.6,4.5-1.2,6.8-1.8c-0.2,0.3-0.3,0.4-0.5,0.8c0.6-0.4,0.9-0.6,1.4-1c-1-0.1-1.7-0.2-2.8-0.3
			c0.7-0.6,1.2-1.2,1.8-1.5c1.5-0.6,3.1-1.2,4.7-1.6c1.8-0.5,3.7-0.7,5.5-1c0.1,0,0.2-0.1,0.3-0.2c-0.2-0.2-0.3-0.3-0.5-0.5
			c0.3-0.2,0.5-0.3,0.8-0.5c-0.5,0-0.9,0-1.2,0c-8.8,0.8-17.5,2.3-26,4.9c-28.7,8.6-52.2,24.7-70.1,48.7
			c-23.4,31.5-31.6,67-24.9,105.7c4.5,26.3,16.3,49.1,34.4,68.6c31.8,34.1,79.6,49.4,125.2,40c20.9-4.3,39.7-13,56.4-26.3
			c1.9-1.5,3.6-3.4,5.3-5.1c0.5-0.4,0.9-0.9,1.4-1.3c1-0.7,2.2-1.2,3-2.1c23.6-23,37.5-50.9,41.1-83.8c1.8-16,0.7-31.7-3.1-47
			L229.4,264.2z M52.3,221.5c0.8-0.3,1.6-0.6,2.4-1c0,0.1,0.1,0.1,0.1,0.2c-0.5,0.6-1,1.4-1.7,1.8c-0.3,0.2-1.3,0.2-1.5-0.1
			C51.2,221.9,51.7,221.7,52.3,221.5z M42.4,223c-1.1,0-2.3,0-3.7,0C39.7,222.1,41.3,222.1,42.4,223z M23.9,210.8
			c0.2,0,0.4,0.1,0.5,0.1c-0.2,0.7-0.3,1.5-0.5,2.2c-0.2,0-0.4-0.1-0.6-0.1C23.6,212.2,23.8,211.5,23.9,210.8z M23.7,213.8
			c0.7,1.2,0.1,3.7-1.4,4.6C23,216.7,22.1,215,23.7,213.8z M80,139c0.5-0.3,1-0.4,0.7-1.1c0-0.1,0.1-0.2,0.2-0.3
			c0.8-0.9,1.7-1.6,2.4-2.6c2-2.6,4.9-3.7,7.8-4.9c1.3-0.6,2.6-1.2,3.9-1.8c0.4-0.2,0.8-0.2,1.2-0.2c0,0.1,0.1,0.2,0.1,0.3
			c-1.4,0.6-2.8,1.2-4.1,1.9c-2.8,1.4-5.4,3.1-7.5,5.6c-0.4,0.5-0.7,1.5-0.6,2.1c0.1,0.4,1.1,0.6,1.7,0.9c0.1,0,0.2,0.1,0.5,0.2
			c-1.4,1-2.9,0.9-4.3,1.2c-0.3-1-0.8-0.9-1.5-0.5c-0.3,0.1-0.7,0-1,0C79.6,139.6,79.7,139.2,80,139z M21.4,191.7
			c0.5-1.4,1.2-2.8,1.9-4.2c0.1,0,0.3,0.1,0.4,0.1c0,0.2,0.1,0.6,0,0.7c-1.4,1.6-1,3.7-1.2,5.5c-0.4,3.2-0.4,3.5-3,5.8
			c-0.4,0.4-0.8,0.7-1.2,1.1c0-0.1-0.1-0.2-0.1-0.2c0.8-1.3,1-2.9,1.6-4.3c0.3-0.8,0.9-1.5,1.2-2.4
			C21.3,193.3,21.1,192.4,21.4,191.7z M19.9,193.8c0.2,0.1,0.3,0.2,0.5,0.2c-1.1,2.3-2.2,4.5-3.3,6.8c-0.1-0.1-0.3-0.1-0.4-0.2
			C17.8,198.3,18.9,196,19.9,193.8z M86.8,325.7c-0.3-0.2-0.6-0.4-0.7-0.5c-0.3,1.8-0.4,3.7-0.8,5.5c-0.8,3.1-1.9,6.1-2.8,9.2
			c-0.1,0.2-0.2,0.5-0.3,0.6c-1.8,1.5-5.4,0.2-6-2.1c-0.2-0.9-0.7-1.8-0.8-2.7c-0.1-0.7,0.1-1.5,0.4-2.2c0.2-0.6,0.8-1.1,1-1.7
			c0.2-0.7,0.3-1.6,0-2.3c-0.5-1.2-1.2-2.3-0.3-3.5c0.1-0.2,0.1-0.5,0.1-1c0.7-0.1,1.4-0.1,2-0.3c0.9-0.2,1.9-0.3,2.7-0.8
			c0.7-0.4,1.1-1.1,1.6-1.8c0.1-0.2-0.1-0.7-0.1-1c2.4,0.5,1.1-2.1,2.3-2.7c1.8,2,1.9,4.5,2.2,6.9C87,325.6,86.9,325.7,86.8,325.7z
			 M240,298.8c-1.5-0.1-2.6-0.2-3.7-0.3c0-0.1,0-0.3,0-0.4c1-0.4,2-0.8,3-0.2C239.6,298,239.8,298.5,240,298.8z M236.5,288.8
			c0.1,0,0.2,0,0.3,0c0.1,0.3,0.3,0.6,0.5,1c0.3-0.1,0.5-0.2,1.1-0.4c-0.4,0.9-0.7,1.5-1.1,2.4c-0.1,0-0.4,0.1-1.1,0.3
			C236.2,290.9,236.3,289.9,236.5,288.8z M234.1,270.6c-0.3,0-0.6,0-1,0c-0.3-0.8-0.6-1.7-0.8-2.6
			C233.6,267.4,233.6,267.4,234.1,270.6z M233.1,270.7c0.1,0.5,0.3,1.1,0.4,1.8c-0.1,0.1-0.3,0.2-0.5,0.3c-0.3-0.8-0.6-1.6-0.9-2.5
			C232.5,270.4,232.8,270.5,233.1,270.7z M228.6,269.7c0.6,0.1,1.2,0.3,2,0.5c-0.7,0.8-1.3,1.4-1.9,2c-0.1-0.1-0.2-0.1-0.2-0.2
			C228.5,271.2,228.6,270.5,228.6,269.7z M230.7,271.5c-0.1,1.1-0.3,2.2-0.5,3.7c-0.6-0.5-1-0.8-1.3-1.1c0.7-1.2,1.1-2,1.6-2.8
			C230.6,271.4,230.7,271.4,230.7,271.5z M228.9,277.6c0.5-0.7,1.3-1.1,2.1-1.7c0.2,0.4,0.4,0.8,0.5,1.1c1.8-1.4,2.4-2.3,2.5-3.3
			c0.8,0.5,1.4,1.1,1.1,2.3c-0.1,0.6,0.4,1.3,0.4,1.9c0,0.5-0.2,1-0.4,1.5c-0.1,0-0.2-0.1-0.3-0.1c-0.1-0.2-0.3-0.4-0.4-0.7
			c-0.1,0-0.3,0-0.4,0c0,0.5,0,1,0,1.5c0,0.5,0,1.1,0,1.6c-0.1,0-0.2,0-0.4,0c-0.1-0.2-0.1-0.4-0.2-0.4c-1.5-0.2-1.9-0.8-1.7-2.2
			c0-0.3-0.1-0.7-0.3-1c0-0.1-0.5,0.2-0.7,0.2c-0.4,0-0.8-0.1-1.4-0.2c-0.2,0.4-0.4,0.9-0.6,1.5c-0.1,0-0.2-0.1-0.3-0.1
			C228.5,278.8,228.5,278.1,228.9,277.6z M219,309.8c0.5,0,1,0,1.4,0c0.2,0,0.4,0.2,0.4,0.4c0,0.1-0.1,0.4-0.2,0.4
			c-1.1,0.4-2.3,0.7-3.4,1c0.3-1.7,1.2-1.3,2.3-0.9C219.3,310.3,219.2,310,219,309.8z M222.9,312c0.2,0.1,0.2,0.5,0.3,0.8
			c-0.3,0.1-0.6,0.3-0.9,0.2c-0.6-0.2-1.1-0.5-1.8-0.9C221.4,311.4,222.2,311.5,222.9,312z M222.1,310.4c0-0.1-0.1-0.3-0.1-0.4
			c0.7-0.2,1.4-0.7,2.1-0.6c1.2,0.2,2.3,0.2,3.3-0.9C226.7,309.9,224.4,310.7,222.1,310.4z M233.2,308.6c-2.4,0.8-3.6,3.4-6.3,4.2
			C228.5,310.1,229.5,309.6,233.2,308.6z M233,299.2c0.4-0.2,0.8-0.5,1.2-0.6c0.2,0,0.5,0.3,1,0.7c-0.7,0.3-1.1,0.6-1.5,0.6
			C233.5,299.9,233.3,299.4,233,299.2z M228.1,291.5c1.6,0.4,3.2,0.5,4.2-1.3c0-0.1,0.2-0.1,0.3-0.1c0.2,1.3-1.6,2.8-2.8,2.6
			c-1-0.1-2.1,0.1-3.1,0.1c-0.1,0-0.3,0.2-0.4,0.2c-1-0.3-1.6,0.3-1.8,1.2c-0.2,1.1,0.4,1.7,0.8,2c1.7-0.7,3.1-1.3,4.5-1.9
			c0.1,0.1,0.1,0.2,0.2,0.3c-1.2,1-2.3,1.9-3.6,2.9c0.2,0.3,0.6,0.8,0.8,1.2c0.2,0.2,0.4,0.6,0.3,0.8c-0.5,1.1,0.3,1.4,1.1,1.7
			c-0.9,0.5-1.8,1.1-2.7,1.5c-0.2-0.9-0.4-1.5-0.6-2.2c-0.1,0-0.2,0-0.2,0.1c0.1-0.5,0.2-1.1,0.3-1.6c-0.2,0-0.3-0.1-0.5-0.1
			c-1,1.6-0.8,3.6-1.3,5.4c-0.3,0.1-0.8,0.1-1.5,0.3c0.2-0.9,0.5-1.6,0.6-2.3c0.1-0.6,0.4-1.3-0.7-1.6c-0.2,0-0.3-1-0.2-1.5
			c0.2-0.9,0.6-1.8,0.9-2.6c0.4-1.2,0.5-2.5,1.2-3.4C225,291.9,226.2,290.9,228.1,291.5z M223.1,273.4c-0.2,1.8-1.4,2.4-2.5,3.1
			C221.3,275.6,222.1,274.6,223.1,273.4z M206.8,291.4c0,0,0.5,0,0.7,0.2c1.2,0.8,2.1,0.5,2.6-0.9c0.3-0.9,0.8-1.5,1.8-1.7
			c0.9-0.1,1.3-0.7,1.7-1.4c0.6-1,1.5-1.9,2.3-2.8c0.3-0.3,0.7-0.3,0.9-0.4c1.7-1.2,1.5-3.6,3.7-4.3c0.3,0.6,0.6,1.2,1,2
			c0.5,0.2,1.4,0.7,2.6,1.2c-0.8,0.3-1.3,0.6-2,0.9c0.1,0.3,0.2,0.7,0.3,1.2c-0.5,0-0.9,0-1.3,0c-0.2,2.9-0.2,2.9,0.5,4
			c-0.2,0.2-0.4,0.4-0.6,0.7c0.6,0.7,1.2,1.3,1.9,2c-0.3,0.1-0.4,0.2-0.5,0.2c-1.6,0.2-2.3,0.9-2.3,2.5c0,0.8-0.3,1.1-0.8,1.6
			c-0.7,0.6-1.4,1.1-1.1,2.3c0.2,0.8-1.3,2.9-2.2,3.2c-0.4,0.2-0.7,0.3-1.3,0.6c0.4-1.8-1.1-1.2-1.7-1.4c-0.7-0.3-1.6,0.3-2.1,0.4
			c-0.6-0.3-1-0.7-1.3-0.7c-2.1,0.3-2.7-0.3-2.2-2.5c0.1-0.3,0-0.5,0.1-0.9c-0.4,0.2-0.6,0.3-0.9,0.5c-0.4-1.1-1-2.3-1-3.4
			C205.6,293.5,206.3,292.5,206.8,291.4z M199.5,300.4c-0.2-0.3-0.5-0.4-1-0.8c0.4-0.3,0.8-0.6,1.2-0.9c0.5,1.1,0.9,2,1.3,2.9
			c-0.1,0.1-0.2,0.2-0.4,0.3C200.3,301.3,199.9,300.8,199.5,300.4z M200,310.1c-0.2-1.2-1.2-0.7-1.9-0.8c0.4-0.5,0.7-1.1,1.1-1.5
			c0.1-0.2,0.4-0.4,0.6-0.4c1.1,0,2.2,0.2,3.3,0.3c0.2,0,0.5,0.1,0.5,0.2c0.3,1.4,1.3,0.7,2.1,0.8c0.9,0.1,1.8,0,1.9-1.2
			c0.8,0.3,1.6,0.5,2.3,0.7c0.3,0.1,0.6,0.2,0.7,0.4c0.3,1.4,1.3,1.3,2.3,1c0.2,0,0.4,0.1,0.6,0.1c-0.1,0.6-0.2,1.1-0.3,1.7
			c-0.1,0-0.2,0.1-0.3,0c-1.5-1-3.2-0.2-4.8-0.4c-0.6-0.1-1.3-0.2-1.9-0.3c-0.5-0.1-1.1-0.4-1.5-0.3c-1.5,0.4-2.9-0.2-4.3-0.2
			C200.3,310.2,200,310.1,200,310.1z M252.2,314.3c-0.4,1.7-0.7,3.4-1,5.1c-0.1,0.3-0.1,0.9,0.1,1.1c0.8,0.6,0.8,1.3,0.7,2.2
			c-0.2,1.4-0.1,2.8-0.3,4.1c-0.1,1-0.5,1.9-0.9,2.8c-2,4.1-4.6,7.8-7.5,11.4c-1.9,2.3-3.7,4.7-5.7,6.9c-1.2,1.4-2.6,2.6-4,3.7
			c-1.2,0.9-2.7,1.5-4,2.2c-0.1-0.1-0.2-0.2-0.3-0.3c0.5-1.3,0.9-2.7,1.5-4.2c-0.3,0.2-0.5,0.3-0.7,0.4c0,0-0.1-0.1-0.1-0.1
			c0.6-0.7,1.1-1.5,1.7-2.2c0,0,0,0-0.1-0.1c-1.2,1.2-2.4,2.4-3.6,3.6c-0.1-0.1-0.1-0.1-0.2-0.2c0.1-1,0.3-2,0.4-3.1
			c-2.3-0.4-4.2-0.1-6.1,1.1c-1.1,0.7-2.5,1-3.6,1.7c-1.3,0.7-2.6,1.4-3.7,2.4c-0.9,0.8-1.7,1.5-2.8,1.6c-2.6,0.2-4.6,1.6-6.7,2.8
			c-1.4,0.8-2.6,0.8-3.6,0.1c-0.8-0.6-0.5-1,0-1.3c1.6-1,2-2.4,2.2-4.1c0-0.5,0-1,0.2-1.4c0.4-1,0.4-1.9,0.1-2.9
			c-0.1-0.4,0-0.8,0-1.2c-0.1-0.8-0.2-1.6-0.3-2.4c0.2,0.2,0.4,0.3,0.7,0.7c-0.1-0.6-0.2-1.1-0.3-1.6c0.1,0,0.2,0,0.2-0.1
			c0.1,0.3,0.3,0.7,0.4,1c0.1,0,0.3,0,0.4,0c0-0.5,0.1-1,0-1.4c-0.5-1.2-0.2-2.2,0.5-3.2c0.4-0.5,0.5-1.1,0.7-1.7
			c0.2-0.5,0.4-1.1,0.6-1.9c0.2,0.5,0.3,0.7,0.3,0.8c0.9-0.7,1.8-1.4,2.9-2c1.6-0.9,3.2-1.6,4.8-2.4c1.4-0.6,2.9-1,4.1-1.9
			c1.4-1,2.6-2.2,3.1-4.1c0.2-0.7,0.9-1.3,1.5-2.1c0.2,0.6,0.4,1,0.7,1.6c0.2-0.4,0.6-0.8,0.5-1.1c-0.5-1.3,0.3-1,1.2-0.9
			c0.1-0.4,0.1-0.9,0.2-1.3c0.1-0.3,0.3-0.5,0.4-0.7c0.2-0.2,0.4-0.3,0.6-0.5c0.7-1.1,1.7-1.9,2.9-2.5c1-0.5,1.5-0.2,1.7,0.9
			c0,0.1,0,0.2,0,0.2c0.5-0.1,1-0.1,1.5-0.3c0.5-0.1,1.1-0.1,0.8-1c-0.1-0.4,0.3-1.1,0.6-1.6c0.3-0.6,0.7-1.2,1.2-1.7
			c0.7-0.7,1.3-1.5,2.4-1.6c0.3,0,0.8-0.4,0.9-0.7c0.1-0.1-0.3-0.6-0.6-1c2,0.3,3.8,1.8,5.8,0c0.1,0.2,0.1,0.4,0.2,0.5
			c-0.6,0.7-1.3,1.3-1.8,2c-0.5,0.7-0.8,1.6-1,2.5c-0.3,1,0.5,1.5,1.3,2c0.8,0.5,1.4,1.2,2.3,1.9c0.4-0.5,1-1,1.3-1.6
			c1.1-2.7,2-5.4,3-8.1c0.3-0.9,0.8-1.8,1.3-2.7c0,1.6,0,3.3,0,4.9C252.1,313.1,252.4,313.5,252.2,314.3z M256.7,304.9
			c-0.2-0.6-0.3-1.3-0.7-1.9c-0.2-0.4-0.7-0.9-1.2-1c-0.2-0.1-0.7,0.4-1,0.7c-0.5,0.5-1.2,1-1,1.9c0,0.1-0.6,0.5-1,0.6
			c-0.5,0.2-1,0.2-1.6,0.3c-0.2-0.4-0.4-0.9-0.7-1.4c-0.7,0.3-1.4,0.6-2.2,0.9c-0.1-0.1-0.2-0.2-0.2-0.2c0.5-0.6,0.9-1.2,1.4-1.9
			c0.1,0,0.2,0.1,0.2,0.1c-0.1-0.5-0.2-1-0.3-1.6c-0.3-1.7-0.9-2.3-2.6-2.6c-0.9-0.2-1.6-0.7-2.5-1c-0.2,0.2-0.5,0.7-0.9,1.2
			c-0.3-1-0.5-1.7-0.7-2.3c0.7-0.3,1.5-0.7,2.3-1.1c-0.1-0.1-0.1-0.2-0.2-0.3c-0.7,0.1-1.4,0.3-1.9,0.4c-0.5-0.7-0.7-1.1-1.2-1.8
			c0.3-0.3,0.8-1.1,1.5-1.3c0.6-0.2,1.4,0,2.2,0.1c0.5,1.5-0.9,3.4,1.2,4.4c1.1-1.3,2.1-2.6,3.2-3.9c2.2,0.8,4.3,1.6,6.4,2.5
			c0.9,0.4,1.8,1,1.2,2.3c0.3,0.1,0.6,0.3,0.8,0.4c1,0.3,0.7,0.8,0.3,1.4c-0.2,0.3-0.4,0.8-0.3,1.2c0.3,1,0.8,2,1.2,3
			c0.1,0.3,0.2,0.7,0.3,1.1C258.1,304.9,257.5,304.9,256.7,304.9z M260.2,298.1c-0.4,0.1-0.9-0.1-1.3-0.2c0-0.1,0-0.2,0-0.4
			c0.7-0.3,1.6-0.5,2.1-1c0.6-0.5,0.8-1.4,1.2-2.2C262.4,295.6,261.2,297.8,260.2,298.1z"/>
	</g>
	<g id="surface1_2_">
		<path d="M172.1,261.6c0,20.6-16.6,37.3-37.1,37.3c-20.5,0-37.1-16.7-37.1-37.3c0-20.6,16.6-37.2,37.1-37.2
			C155.5,224.4,172.1,241.1,172.1,261.6z"/>
		<path d="M392.8,17.6c1.2-1.2,1.9-2.8,1.9-4.5v-1.7c0-5.8-4.7-10.5-10.4-10.5c-2.8,0-5.4,1.1-7.4,3.1l-66.6,66.9
			c-7,6.8-18.1,6.8-25.2,0c-4.2-4.2-6-10.2-4.9-16c0.8-3.7,2.7-7.1,5.4-9.7l33.1-33.2c1.8-1.8,2.4-4.6,1.4-7c-1-2.4-3.3-4-5.9-4
			c-1.7,0-3.3,0.7-4.5,1.9l-216,216.9c-10.5,10.2-17,23.9-18.4,38.5c-1.3,17.2,4.9,34.1,17.1,46.3c12.2,12.2,29,18.5,46.2,17.1
			c14.6-1.3,28.2-7.9,38.4-18.4l216-216.9c1.2-1.2,1.9-2.8,1.9-4.5c0-2.6-1.6-4.9-3.9-5.9c-2.4-1-5.1-0.4-7,1.4L282.4,179
			c-7,7-18.2,7-25.2,0c-7-7-7-18.3,0-25.3L392.8,17.6z M135,310.3c-26.8,0-48.5-21.8-48.5-48.7c0-26.9,21.7-48.7,48.5-48.7
			c26.8,0,48.5,21.8,48.5,48.7C183.5,288.5,161.8,310.3,135,310.3z M189.2,212.9c-2.3,0-4.4-1.4-5.3-3.5c-0.9-2.1-0.4-4.6,1.2-6.2
			l28.5-28.7c2.2-2.2,5.8-2.1,8,0.1c2.2,2.2,2.2,5.8,0.1,8l-28.5,28.7C192.2,212.3,190.7,212.9,189.2,212.9z M227.5,222.7
			l-22.8,22.9c-2.2,2.2-5.8,2.1-8-0.1c-2.2-2.2-2.2-5.8-0.1-8l22.8-22.9c2.2-2.2,5.8-2.1,8,0.1C229.6,216.9,229.7,220.5,227.5,222.7
			z M233.2,119.6l-79.9,80.2c-2.2,2.2-5.8,2.1-8-0.1c-2.2-2.2-2.2-5.8-0.1-8l79.9-80.2c2.2-2.2,5.8-2.1,8,0.1
			C235.4,113.7,235.4,117.3,233.2,119.6z M250.3,102.4c-2.2,2.2-5.8,2.1-8-0.1c-2.2-2.2-2.2-5.8-0.1-8l11.4-11.5
			c2.2-2.2,5.8-2.1,8,0.1c2.2,2.2,2.2,5.8,0.1,8L250.3,102.4z"/>
	</g>
</g>
</svg>
